<svg width="19" height="12" viewBox="0 0 19 12" fill="none" xmlns="http://www.w3.org/2000/svg">
<path d="M18.5 1.875V10.125C18.5 10.425 18.4 10.6667 18.2 10.85C18 11.0333 17.7667 11.125 17.5 11.125C17.4167 11.125 17.325 11.1167 17.225 11.1C17.125 11.0833 17.0333 11.0417 16.95 10.975L10.75 6.825C10.6 6.725 10.4875 6.60417 10.4125 6.4625C10.3375 6.32083 10.3 6.16667 10.3 6C10.3 5.83333 10.3375 5.67917 10.4125 5.5375C10.4875 5.39583 10.6 5.275 10.75 5.175L16.95 1.025C17.0333 0.958333 17.125 0.916667 17.225 0.9C17.325 0.883333 17.4167 0.875 17.5 0.875C17.7667 0.875 18 0.966667 18.2 1.15C18.4 1.33333 18.5 1.575 18.5 1.875ZM8.5 1.875V10.125C8.5 10.425 8.4 10.6667 8.2 10.85C8 11.0333 7.76667 11.125 7.5 11.125C7.41667 11.125 7.325 11.1167 7.225 11.1C7.125 11.0833 7.03333 11.0417 6.95 10.975L0.75 6.825C0.6 6.725 0.4875 6.60417 0.4125 6.4625C0.3375 6.32083 0.3 6.16667 0.3 6C0.3 5.83333 0.3375 5.67917 0.4125 5.5375C0.4875 5.39583 0.6 5.275 0.75 5.175L6.95 1.025C7.03333 0.958333 7.125 0.916667 7.225 0.9C7.325 0.883333 7.41667 0.875 7.5 0.875C7.76667 0.875 8 0.966667 8.2 1.15C8.4 1.33333 8.5 1.575 8.5 1.875ZM16.5 3.75L13.1 6L16.5 8.25V3.75ZM6.5 3.75L3.1 6L6.5 8.25V3.75Z" fill="#383838"/>
</svg>
